<?xml version="1.0" encoding="utf-8"?>
<!-- Generator: Adobe Illustrator 25.2.3, SVG Export Plug-In . SVG Version: 6.00 Build 0)  -->
<svg version="1.1" id="Layer_1" xmlns="http://www.w3.org/2000/svg" xmlns:xlink="http://www.w3.org/1999/xlink" x="0px" y="0px"
	 viewBox="0 0 94 3.5" style="enable-background:new 0 0 94 3.5;" xml:space="preserve">
<style type="text/css">
	.st0{fill:#0071ce;}
	.st1{fill:#0071ef;}
	.st2{enable-background:new    ;}
	.st3{fill:#3071ef;}
</style>
<g>
	<g>
		<g class="st2">
			<g>
				<path class="st1" d="M89.2,2.6c-0.2,0-0.4,0-0.7,0C73.8,2.2,59.1,2,44.4,2.1C29.7,2.3,15,2.8,0.3,3.5l0.3-0.1L0,3.1l0.3-1.2
					L0,1.4C15.3,0.7,30.6,0.2,45.9,0c15.3-0.1,30.6,0.1,45.9,0.6l0.7,0c0.2,0,0.4,0,0.5,0.1l0.8,0.2C94,0.9,94.1,1,93.9,1.1
					l-0.5,0.1c-0.1,0-0.1,0.1-0.1,0.1l0.1,0.1c0,0,0,0,0,0.1l-0.1,0.1c0,0,0,0.1,0,0.1l0.2,0.2c0.1,0,0,0.1-0.2,0.1l-0.6,0
					c-0.1,0-0.2,0-0.2,0.1l-0.1,0.1c0,0,0,0,0,0.1l0.2,0.1c0,0,0,0,0,0.1l-0.1,0.1c-0.1,0-0.3,0.1-0.5,0.1l-1.2,0c-0.4,0-0.7,0-1,0
					L89.2,2.6z"/>
			</g>
		</g>
	</g>
</g>
</svg>
